<svg height="120" viewBox="0 0 120 120" width="120" xmlns="http://www.w3.org/2000/svg"><g fill="none" fill-rule="evenodd"><path d="m60 60h60c0 33.137085-26.862915 60-60 60h-60v-60c0-33.137085 26.862915-60 60-60z" fill="#103cdf" fill-rule="evenodd"/><path d="m0 97c12.7025492 0 23 10.297451 23 23h-23z" fill="#f5a623" fill-rule="evenodd"/><path d="m0 90c16.5685425 0 30 13.431458 30 30h-8c0-12.150264-9.8497355-22-22-22z" fill="#fff" fill-rule="nonzero"/><g fill-rule="evenodd"><path d="m60 0c0 33.137085 26.862915 60 60 60h-60z" fill="#fff"/><path d="m120 60c-33.137085 0-60-26.862915-60-60h60z" fill="#2d3092"/></g></g></svg>