<svg height="190" width="160" xmlns="http://www.w3.org/2000/svg"><g transform="matrix(.1250002 0 0 -.12500026 -286.753863 596.951263)"><path d="m2933.33 3282.3c333.79 0 605.4 326.84 605.4 730.04 0 402.73-271.61 729.56-605.4 729.56-334.8 0-605.9-326.83-605.9-729.56 0-403.2 271.1-730.04 605.9-730.04" fill="#1d1c1c" fill-rule="evenodd"/><path d="m2933.33 3282.3c333.79 0 605.4 326.84 605.4 730.04 0 402.73-271.61 729.56-605.4 729.56-334.8 0-605.9-326.83-605.9-729.56 0-403.2 271.1-730.04 605.9-730.04z" fill="none" stroke="#1d1c1c" stroke-miterlimit="2.613" stroke-width="7.679986"/><path d="m3063.8 4710.53c4.05 0 53.13 6.57 52.59 11.12-.98 8.62-33.36 20.74-48.54 21.76-20.74 1.53-27.8-6.07-61.7-15.17 0 0 15.69-13.69 57.65-17.71" fill="#e6d35d" fill-rule="evenodd"/><path d="m3063.8 4710.53c4.05 0 53.13 6.57 52.59 11.12-.98 8.62-33.36 20.74-48.54 21.76-20.74 1.53-27.8-6.07-61.7-15.17 0 0 15.69-13.69 57.65-17.71z" fill="none" stroke="#1d1c1c" stroke-miterlimit="2.613" stroke-width="7.679986"/><path d="m3124.5 4688.29c4.05-1.03 53.12.99 53.12 5.54.51 9.12-30.88 24.28-45.54 26.82-20.74 3.04-28.83-3.03-63.22-8.62 0 0 14.17-15.66 55.64-23.74" fill="#e6d35d" fill-rule="evenodd"/><path d="m3124.5 4688.29c4.05-1.03 53.12.99 53.12 5.54.51 9.12-30.88 24.28-45.54 26.82-20.74 3.04-28.83-3.03-63.22-8.62 0 0 14.17-15.66 55.64-23.74z" fill="none" stroke="#1d1c1c" stroke-miterlimit="2.613" stroke-width="7.679986"/><path d="m3185.19 4660.45c3.54-1.52 53.1-6.56 53.62-2.02 1.01 9.09-27.84 28.33-41.99 32.36-19.72 6.59-28.8 1.03-63.72.52 0 0 11.65-17.72 52.09-30.86" fill="#e6d35d" fill-rule="evenodd"/><path d="m3185.19 4660.45c3.54-1.52 53.1-6.56 53.62-2.02 1.01 9.09-27.84 28.33-41.99 32.36-19.72 6.59-28.8 1.03-63.72.52 0 0 11.65-17.72 52.09-30.86z" fill="none" stroke="#1d1c1c" stroke-miterlimit="2.613" stroke-width="7.679986"/><path d="m3234.77 4624.51c3.52-1.5 52.08-11.63 53.11-7.57 2.5 8.59-24.27 30.86-37.92 36.95-18.75 8.56-28.36 4.02-63.25 7.56 0 0 9.6-18.72 48.06-36.94" fill="#e6d35d"/><path d="m3234.77 4624.51c3.52-1.5 52.08-11.63 53.11-7.57 2.5 8.59-24.27 30.86-37.92 36.95-18.75 8.56-28.36 4.02-63.25 7.56 0 0 9.6-18.72 48.06-36.94z" fill="none" stroke="#1d1c1c" stroke-miterlimit="2.613" stroke-width="7.679986"/><path d="m3282.3 4586.57c3.53-2.01 51.09-14.16 52.6-9.61 2.53 8.6-23.28 31.86-36.4 38.46-18.73 8.6-28.36 5.07-63.25 9.09 0 0 9.13-18.7 47.05-37.94" fill="#e6d35d" fill-rule="evenodd"/><path d="m3282.3 4586.57c3.53-2.01 51.09-14.16 52.6-9.61 2.53 8.6-23.28 31.86-36.4 38.46-18.73 8.6-28.36 5.07-63.25 9.09 0 0 9.13-18.7 47.05-37.94z" fill="none" stroke="#1d1c1c" stroke-miterlimit="2.613" stroke-width="7.679986"/><path d="m3324.77 4545.09c4.07-2.52 48.06-23.79 50.07-17.71 3.05 8.62-19.21 38.46-32.34 45.55-18.23 10.1-28.84 7.56-63.74 14.16 0 0 8.09-20.23 46.01-42" fill="#e6d35d" fill-rule="evenodd"/><path d="m3324.77 4545.09c4.07-2.52 48.06-23.79 50.07-17.71 3.05 8.62-19.21 38.46-32.34 45.55-18.23 10.1-28.84 7.56-63.74 14.16 0 0 8.09-20.23 46.01-42z" fill="none" stroke="#1d1c1c" stroke-miterlimit="2.613" stroke-width="7.679986"/><path d="m3362.22 4505.12c3.53-2.52 52.58-31.37 55.1-25.3 4.06 8.08-19.19 38.96-31.86 47.56-17.69 11.14-26.78 8.62-60.69 17.71 0 0 2.05-15.69 37.45-39.97" fill="#e6d35d" fill-rule="evenodd"/><path d="m3362.22 4505.12c3.53-2.52 52.58-31.37 55.1-25.3 4.06 8.08-19.19 38.96-31.86 47.56-17.69 11.14-26.78 8.62-60.69 17.71 0 0 2.05-15.69 37.45-39.97z" fill="none" stroke="#1d1c1c" stroke-miterlimit="2.613" stroke-width="7.679986"/><path d="m3399.61 4457.05c3.57-3.02 48.09-37.43 51.62-31.87 5.06 8.1-14.68 41-26.32 51.11-15.67 13.66-24.77 12.14-57.64 25.3 0 0 0-15.69 32.34-44.54" fill="#e6d35d" fill-rule="evenodd"/><path d="m3399.61 4457.05c3.57-3.02 48.09-37.43 51.62-31.87 5.06 8.1-14.68 41-26.32 51.11-15.67 13.66-24.77 12.14-57.64 25.3 0 0 0-15.69 32.34-44.54z" fill="none" stroke="#1d1c1c" stroke-miterlimit="2.613" stroke-width="7.679986"/><path d="m3433.02 4403.44c3.53-3.04 46.54-35.92 50.08-30.37 5.04 7.59-15.18 37.46-26.31 47.57-15.19 14.16-26.31 18.71-52.1 32.88 0 0-2.02-20.24 28.33-50.08" fill="#e6d35d" fill-rule="evenodd"/><path d="m3433.02 4403.44c3.53-3.04 46.54-35.92 50.08-30.37 5.04 7.59-15.18 37.46-26.31 47.57-15.19 14.16-26.31 18.71-52.1 32.88 0 0-2.02-20.24 28.33-50.08z" fill="none" stroke="#1d1c1c" stroke-miterlimit="2.613" stroke-width="7.679986"/><path d="m3454.76 4358.38c3.55-2.5 30.87-28.81 47.55-30.85 8.58-1.01-12.67 42.52-22.75 47.08-14.7 6.05-32.39 17.69-48.08 31.85 0 0-6.04-23.76 23.28-48.08" fill="#e6d35d" fill-rule="evenodd"/><path d="m3454.76 4358.38c3.55-2.5 30.87-28.81 47.55-30.85 8.58-1.01-12.67 42.52-22.75 47.08-14.7 6.05-32.39 17.69-48.08 31.85 0 0-6.04-23.76 23.28-48.08z" fill="none" stroke="#1d1c1c" stroke-miterlimit="2.613" stroke-width="7.679986"/><path d="m3454.76 4358.38c33.38-29.82 47.55-30.85 47.55-30.85 17.16-22.26 15.68-48.05 15.68-48.05s-32.36 16.18-45 31.37c-25.82 31.36-18.23 47.53-18.23 47.53" fill="#e6d35d" fill-rule="evenodd"/><path d="m3454.76 4358.38c33.38-29.82 47.55-30.85 47.55-30.85 17.16-22.26 15.68-48.05 15.68-48.05s-32.36 16.18-45 31.37c-25.82 31.36-18.23 47.53-18.23 47.53z" fill="none" stroke="#1d1c1c" stroke-miterlimit="2.613" stroke-width="7.679986"/><path d="m3472.47 4310.85c38.42-23.27 44.49-28.33 44.49-28.33 20.77-28.83 15.68-63.24 15.68-63.24s-28.32 34.41-43 47.56c-21.22 19.21-17.17 44.01-17.17 44.01" fill="#e6d35d" fill-rule="evenodd"/><path d="m3472.47 4310.85c38.42-23.27 44.49-28.33 44.49-28.33 20.77-28.83 15.68-63.24 15.68-63.24s-28.32 34.41-43 47.56c-21.22 19.21-17.17 44.01-17.17 44.01z" fill="none" stroke="#1d1c1c" stroke-miterlimit="2.613" stroke-width="7.679986"/><path d="m3494.24 4264.32c36.89-31.88 40.93-44.03 40.93-44.03 17.22-30.86 9.62-61.74 9.62-61.74s-23.77 38.45-36.4 52.62c-18.75 21.77-14.15 53.15-14.15 53.15" fill="#e6d35d" fill-rule="evenodd"/><path d="m3494.24 4264.32c36.89-31.88 40.93-44.03 40.93-44.03 17.22-30.86 9.62-61.74 9.62-61.74s-23.77 38.45-36.4 52.62c-18.75 21.77-14.15 53.15-14.15 53.15z" fill="none" stroke="#1d1c1c" stroke-miterlimit="2.613" stroke-width="7.679986"/><path d="m3508.89 4210.68c25.27-36.93 39.95-45.54 39.95-45.54 15.16-31.88 7.06-62.21 7.06-62.21s-22.24 39.43-34.38 54.12c-17.71 22.75-12.63 53.63-12.63 53.63" fill="#e6d35d" fill-rule="evenodd"/><path d="m3508.89 4210.68c25.27-36.93 39.95-45.54 39.95-45.54 15.16-31.88 7.06-62.21 7.06-62.21s-22.24 39.43-34.38 54.12c-17.71 22.75-12.63 53.63-12.63 53.63z" fill="none" stroke="#1d1c1c" stroke-miterlimit="2.613" stroke-width="7.679986"/><path d="m3516.48 4163.13c29.31-35.94 38.41-46.57 38.41-46.57 14.16-31.86 5.57-62.2 5.57-62.2s-21.73 39.95-33.38 55.13c-17.2 23.28-10.6 53.64-10.6 53.64" fill="#e6d35d" fill-rule="evenodd"/><path d="m3516.48 4163.13c29.31-35.94 38.41-46.57 38.41-46.57 14.16-31.86 5.57-62.2 5.57-62.2s-21.73 39.95-33.38 55.13c-17.2 23.28-10.6 53.64-10.6 53.64z" fill="none" stroke="#1d1c1c" stroke-miterlimit="2.613" stroke-width="7.679986"/><path d="m3522.54 4118.1c19.73-24.81 37.42-56.17 37.42-56.17 6.59-26.81-1.01-50.11-1.01-50.11s-19.72 29.87-29.85 46.07c-16.69 26.81-6.56 60.21-6.56 60.21" fill="#e6d35d" fill-rule="evenodd"/><path d="m3522.54 4118.1c19.73-24.81 37.42-56.17 37.42-56.17 6.59-26.81-1.01-50.11-1.01-50.11s-19.72 29.87-29.85 46.07c-16.69 26.81-6.56 60.21-6.56 60.21z" fill="none" stroke="#1d1c1c" stroke-miterlimit="2.613" stroke-width="7.679986"/><path d="m3526.07 4067.5c34.9-44.02 32.88-49.08 32.88-49.08 5.55-26.84-1-62.73-1-62.73s-16.7 41.98-27.32 58.18c-10.13 15.66-4.56 53.63-4.56 53.63" fill="#e6d35d" fill-rule="evenodd"/><path d="m3526.07 4067.5c34.9-44.02 32.88-49.08 32.88-49.08 5.55-26.84-1-62.73-1-62.73s-16.7 41.98-27.32 58.18c-10.13 15.66-4.56 53.63-4.56 53.63z" fill="none" stroke="#1d1c1c" stroke-miterlimit="2.613" stroke-width="7.679986"/><path d="m3532.17 4015.38c23.73-37.94 25.78-54.65 25.78-54.65 2.51-31.35-9.11-62.21-9.11-62.21s-12.14 43.01-19.74 61.21c-7.07 16.7 3.07 55.65 3.07 55.65" fill="#e6d35d" fill-rule="evenodd"/><path d="m3532.17 4015.38c23.73-37.94 25.78-54.65 25.78-54.65 2.51-31.35-9.11-62.21-9.11-62.21s-12.14 43.01-19.74 61.21c-7.07 16.7 3.07 55.65 3.07 55.65z" fill="none" stroke="#1d1c1c" stroke-miterlimit="2.613" stroke-width="7.679986"/><path d="m3530.12 3962.78c22.76-38.46 21.23-60.72 21.23-60.72 1.53-31.38-10.63-61.73-10.63-61.73s-11.11 43.51-17.68 61.73c-6.56 17.2 7.08 60.72 7.08 60.72" fill="#e6d35d" fill-rule="evenodd"/><path d="m3530.12 3962.78c22.76-38.46 21.23-60.72 21.23-60.72 1.53-31.38-10.63-61.73-10.63-61.73s-11.11 43.51-17.68 61.73c-6.56 17.2 7.08 60.72 7.08 60.72z" fill="none" stroke="#1d1c1c" stroke-miterlimit="2.613" stroke-width="7.679986"/><path d="m3523.04 3901.54c20.24-39.97 20.72-56.15 20.72-56.15-.48-31.87-14.66-61.7-14.66-61.7s-8.08 44.52-13.64 62.7c-5.58 17.72 7.58 55.15 7.58 55.15" fill="#e6d35d" fill-rule="evenodd"/><path d="m3523.04 3901.54c20.24-39.97 20.72-56.15 20.72-56.15-.48-31.87-14.66-61.7-14.66-61.7s-8.08 44.52-13.64 62.7c-5.58 17.72 7.58 55.15 7.58 55.15z" fill="none" stroke="#1d1c1c" stroke-miterlimit="2.613" stroke-width="7.679986"/><path d="m3513.95 3854.51c17.68-40.99 16.68-57.69 16.68-57.69-2.53-31.36-18.7-60.21-18.7-60.21s-5.07 45.03-9.13 63.78c-4.56 17.68 11.15 54.12 11.15 54.12" fill="#e6d35d" fill-rule="evenodd"/><path d="m3513.95 3854.51c17.68-40.99 16.68-57.69 16.68-57.69-2.53-31.36-18.7-60.21-18.7-60.21s-5.07 45.03-9.13 63.78c-4.56 17.68 11.15 54.12 11.15 54.12z" fill="none" stroke="#1d1c1c" stroke-miterlimit="2.613" stroke-width="7.679986"/><path d="m3503.33 3802.89c16.14-41.5 12.63-63.22 12.63-63.22-3.02-29.86-19.73-59.71-19.73-59.71s-4.54 45.03-8.59 63.73c-4.54 24.31 15.69 59.2 15.69 59.2" fill="#e6d35d" fill-rule="evenodd"/><path d="m3503.33 3802.89c16.14-41.5 12.63-63.22 12.63-63.22-3.02-29.86-19.73-59.71-19.73-59.71s-4.54 45.03-8.59 63.73c-4.54 24.31 15.69 59.2 15.69 59.2z" fill="none" stroke="#1d1c1c" stroke-miterlimit="2.613" stroke-width="7.679986"/><path d="m3488.14 3752.3c14.66-42.01 13.16-55.13 13.16-55.13-4.05-29.87-26.32-62.25-26.32-62.25s-2.51 44.51-5.57 63.74c-3.02 18.22 18.73 53.64 18.73 53.64" fill="#e6d35d" fill-rule="evenodd"/><path d="m3488.14 3752.3c14.66-42.01 13.16-55.13 13.16-55.13-4.05-29.87-26.32-62.25-26.32-62.25s-2.51 44.51-5.57 63.74c-3.02 18.22 18.73 53.64 18.73 53.64z" fill="none" stroke="#1d1c1c" stroke-miterlimit="2.613" stroke-width="7.679986"/><path d="m3470.44 3701.72c3.54-32.9 9.12-55.16 9.12-55.16-7.61-28.85-32.39-59.18-32.39-59.18s.53 45.03 1.01 64.23c1.51 31.87 22.26 50.11 22.26 50.11" fill="#e6d35d" fill-rule="evenodd"/><path d="m3470.44 3701.72c3.54-32.9 9.12-55.16 9.12-55.16-7.61-28.85-32.39-59.18-32.39-59.18s.53 45.03 1.01 64.23c1.51 31.87 22.26 50.11 22.26 50.11z" fill="none" stroke="#1d1c1c" stroke-miterlimit="2.613" stroke-width="7.679986"/><path d="m3447.7 3654.17c8.07-43.53 4.55-56.17 4.55-56.17-9.11-28.86-35.94-57.67-35.94-57.67s4.55 45.03 4.55 64.26c0 18.19 26.84 49.58 26.84 49.58" fill="#e6d35d" fill-rule="evenodd"/><path d="m3447.7 3654.17c8.07-43.53 4.55-56.17 4.55-56.17-9.11-28.86-35.94-57.67-35.94-57.67s4.55 45.03 4.55 64.26c0 18.19 26.84 49.58 26.84 49.58z" fill="none" stroke="#1d1c1c" stroke-miterlimit="2.613" stroke-width="7.679986"/><path d="m3421.38 3609.62c5.55-44.51 1.02-57.16 1.02-57.16-10.63-27.81-38.93-54.64-38.93-54.64s7.58 44.02 8.59 63.76c1.01 17.7 29.32 48.04 29.32 48.04" fill="#e6d35d" fill-rule="evenodd"/><path d="m3421.38 3609.62c5.55-44.51 1.02-57.16 1.02-57.16-10.63-27.81-38.93-54.64-38.93-54.64s7.58 44.02 8.59 63.76c1.01 17.7 29.32 48.04 29.32 48.04z" fill="none" stroke="#1d1c1c" stroke-miterlimit="2.613" stroke-width="7.679986"/><path d="m3393.57 3559.54c0-44.52-5.57-56.65-5.57-56.65-13.62-26.8-45.01-50.11-45.01-50.11s12.13 43.01 15.69 62.24c3.02 17.71 34.89 44.52 34.89 44.52" fill="#e6d35d" fill-rule="evenodd"/><path d="m3393.57 3559.54c0-44.52-5.57-56.65-5.57-56.65-13.62-26.8-45.01-50.11-45.01-50.11s12.13 43.01 15.69 62.24c3.02 17.71 34.89 44.52 34.89 44.52z" fill="none" stroke="#1d1c1c" stroke-miterlimit="2.613" stroke-width="7.679986"/><path d="m3356.66 3509.48c-4.58-44.54-11.14-55.16-11.14-55.16-16.68-25.32-50.08-45.53-50.08-45.53s16.7 41.49 21.75 60.21c5.08 17.69 39.47 40.48 39.47 40.48" fill="#e6d35d" fill-rule="evenodd"/><path d="m3356.66 3509.48c-4.58-44.54-11.14-55.16-11.14-55.16-16.68-25.32-50.08-45.53-50.08-45.53s16.7 41.49 21.75 60.21c5.08 17.69 39.47 40.48 39.47 40.48z" fill="none" stroke="#1d1c1c" stroke-miterlimit="2.613" stroke-width="7.679986"/><path d="m3314.16 3464.44c-8.59-44.02-16.7-54.15-16.7-54.15-18.7-23.27-54.1-40.49-54.1-40.49s20.74 40.49 27.82 58.21c6.57 17.22 42.98 36.43 42.98 36.43" fill="#e6d35d" fill-rule="evenodd"/><path d="m3314.16 3464.44c-8.59-44.02-16.7-54.15-16.7-54.15-18.7-23.27-54.1-40.49-54.1-40.49s20.74 40.49 27.82 58.21c6.57 17.22 42.98 36.43 42.98 36.43z" fill="none" stroke="#1d1c1c" stroke-miterlimit="2.613" stroke-width="7.679986"/><path d="m3267.64 3423.45c-5.06-23.26-21.25-52.64-21.25-52.64-21.25-21.23-57.66-34.87-57.66-34.87s24.29 37.43 32.38 55.11c8.61 16.7 46.53 32.4 46.53 32.4" fill="#e6d35d" fill-rule="evenodd"/><path d="m3267.64 3423.45c-5.06-23.26-21.25-52.64-21.25-52.64-21.25-21.23-57.66-34.87-57.66-34.87s24.29 37.43 32.38 55.11c8.61 16.7 46.53 32.4 46.53 32.4z" fill="none" stroke="#1d1c1c" stroke-miterlimit="2.613" stroke-width="7.679986"/><path d="m3217.56 3385.02c-8.09-22.77-27.83-49.6-27.83-49.6-23.76-18.73-61.69-27.31-61.69-27.31s28.84 34.38 39.44 50.58c10.65 15.71 50.08 26.33 50.08 26.33" fill="#e6d35d" fill-rule="evenodd"/><path d="m3217.56 3385.02c-8.09-22.77-27.83-49.6-27.83-49.6-23.76-18.73-61.69-27.31-61.69-27.31s28.84 34.38 39.44 50.58c10.65 15.71 50.08 26.33 50.08 26.33z" fill="none" stroke="#1d1c1c" stroke-miterlimit="2.613" stroke-width="7.679986"/><path d="m3161.93 3352.63c-9.61-22.26-31.36-43.52-31.36-43.52-24.76-17.2-63.24-23.78-63.24-23.78s28.83 34.92 43.02 48.07c12.13 11.14 51.58 19.23 51.58 19.23" fill="#e6d35d" fill-rule="evenodd"/><path d="m3161.93 3352.63c-9.61-22.26-31.36-43.52-31.36-43.52-24.76-17.2-63.24-23.78-63.24-23.78s28.83 34.92 43.02 48.07c12.13 11.14 51.58 19.23 51.58 19.23z" fill="none" stroke="#1d1c1c" stroke-miterlimit="2.613" stroke-width="7.679986"/><path d="m3100.25 3324.8c-12.15-20.26-31.89-39.96-31.89-39.96-27.29-13.15-71.31-12.16-71.31-12.16s32.37 27.85 48.04 37.95c16.68 11.13 55.16 14.17 55.16 14.17" fill="#e6d35d" fill-rule="evenodd"/><path d="m3100.25 3324.8c-12.15-20.26-31.89-39.96-31.89-39.96-27.29-13.15-71.31-12.16-71.31-12.16s32.37 27.85 48.04 37.95c16.68 11.13 55.16 14.17 55.16 14.17z" fill="none" stroke="#1d1c1c" stroke-miterlimit="2.613" stroke-width="7.679986"/><path d="m3041.07 3309.63c-46.54-46.56-37.45-35.42-37.45-35.42-27.8-16.69-67.77-6.6-67.77-6.6s29.34 33.92 48.54 35.44c19.23 2.02 56.68 6.58 56.68 6.58" fill="#e6d35d"/><path d="m3041.07 3309.63c-46.54-46.56-37.45-35.42-37.45-35.42-27.8-16.69-67.77-6.6-67.77-6.6s29.34 33.92 48.54 35.44c19.23 2.02 56.68 6.58 56.68 6.58z" fill="none" stroke="#1d1c1c" stroke-miterlimit="2.613" stroke-width="7.679986"/><path d="m2980.86 3299.51c-22.25-19.23-45.01-31.9-45.01-31.9-28.33-7.57-69.79 3.05-69.79 3.05s36.91 22.27 53.1 26.32c28.82 8.09 61.7 2.53 61.7 2.53" fill="#e6d35d" fill-rule="evenodd"/><path d="m2980.86 3299.51c-22.25-19.23-45.01-31.9-45.01-31.9-28.33-7.57-69.79 3.05-69.79 3.05s36.91 22.27 53.1 26.32c28.82 8.09 61.7 2.53 61.7 2.53z" fill="none" stroke="#1d1c1c" stroke-miterlimit="2.613" stroke-width="7.679986"/><path d="m2916.66 3296.98c-21.27-14.16-48.08-26.32-48.08-26.32-59.69 5.58-77.37 16.72-77.37 16.72s46.52 12.13 63.22 14.64c30.34 4.07 62.23-5.04 62.23-5.04" fill="#e6d35d" fill-rule="evenodd"/><path d="m2916.66 3296.98c-21.27-14.16-48.08-26.32-48.08-26.32-59.69 5.58-77.37 16.72-77.37 16.72s46.52 12.13 63.22 14.64c30.34 4.07 62.23-5.04 62.23-5.04z" fill="none" stroke="#1d1c1c" stroke-miterlimit="2.613" stroke-width="7.679986"/><path d="m2856.95 3302.54c-24.28-10.1-60.68-14.68-60.68-14.68-39.46 4.05-57.66 22.28-57.66 22.28s45.5 6.06 62.21 3.01c22.75-3.52 56.13-10.61 56.13-10.61" fill="#e6d35d" fill-rule="evenodd"/><path d="m2856.95 3302.54c-24.28-10.1-60.68-14.68-60.68-14.68-39.46 4.05-57.66 22.28-57.66 22.28s45.5 6.06 62.21 3.01c22.75-3.52 56.13-10.61 56.13-10.61z" fill="none" stroke="#1d1c1c" stroke-miterlimit="2.613" stroke-width="7.679986"/><path d="m2792.22 3316.2c-24.78-7.09-57.66-6.57-57.66-6.57-39.46 8.08-56.15 27.81-56.15 27.81s46.54 3.56 58.17 0c20.75-6.57 55.64-21.24 55.64-21.24" fill="#e6d35d" fill-rule="evenodd"/><path d="m2792.22 3316.2c-24.78-7.09-57.66-6.57-57.66-6.57-39.46 8.08-56.15 27.81-56.15 27.81s46.54 3.56 58.17 0c20.75-6.57 55.64-21.24 55.64-21.24z" fill="none" stroke="#1d1c1c" stroke-miterlimit="2.613" stroke-width="7.679986"/><path d="m2675.39 3368.82c-27.3-3.57-50.57.5-50.57.5-36.93 14.66-50.59 43.49-50.59 43.49s44.51 2.03 60.7-10.1c12.64-9.6 40.46-33.89 40.46-33.89" fill="#e6d35d" fill-rule="evenodd"/><path d="m2675.39 3368.82c-27.3-3.57-50.57.5-50.57.5-36.93 14.66-50.59 43.49-50.59 43.49s44.51 2.03 60.7-10.1c12.64-9.6 40.46-33.89 40.46-33.89z" fill="none" stroke="#1d1c1c" stroke-miterlimit="2.613" stroke-width="7.679986"/><path d="m2633.91 3402.2c-14.67.51-58.67 10.14-58.67 10.14-30.34 13.13-49.04 45.51-49.04 45.51s44.49 0 60.17-13.15c12.64-9.63 47.54-42.5 47.54-42.5" fill="#e6d35d" fill-rule="evenodd"/><path d="m2633.91 3402.2c-14.67.51-58.67 10.14-58.67 10.14-30.34 13.13-49.04 45.51-49.04 45.51s44.49 0 60.17-13.15c12.64-9.63 47.54-42.5 47.54-42.5z" fill="none" stroke="#1d1c1c" stroke-miterlimit="2.613" stroke-width="7.679986"/><path d="m2579.8 3448.77c-14.67.48-53.6 6.56-53.6 6.56-29.85 13.15-39.46 46.05-39.46 46.05s38.94-6.09 56.15-15.7c13.64-7.61 36.91-36.91 36.91-36.91" fill="#e6d35d" fill-rule="evenodd"/><path d="m2579.8 3448.77c-14.67.48-53.6 6.56-53.6 6.56-29.85 13.15-39.46 46.05-39.46 46.05s38.94-6.09 56.15-15.7c13.64-7.61 36.91-36.91 36.91-36.91z" fill="none" stroke="#1d1c1c" stroke-miterlimit="2.613" stroke-width="7.679986"/><path d="m2539.84 3488.23c-15.18 1.5-53.1 10.62-53.1 10.62-28.33 15.66-35.4 49.04-35.4 49.04s38.42-9.1 54.11-19.71c13.16-9.1 34.39-39.95 34.39-39.95" fill="#e6d35d" fill-rule="evenodd"/><path d="m2539.84 3488.23c-15.18 1.5-53.1 10.62-53.1 10.62-28.33 15.66-35.4 49.04-35.4 49.04s38.42-9.1 54.11-19.71c13.16-9.1 34.39-39.95 34.39-39.95z" fill="none" stroke="#1d1c1c" stroke-miterlimit="2.613" stroke-width="7.679986"/><path d="m2502.93 3529.19c-14.16 3.54-51.09 16.18-51.09 16.18-26.81 19.22-30.34 52.63-30.34 52.63s37.45-13.14 52.11-25.29c11.6-10.11 29.32-43.52 29.32-43.52" fill="#e6d35d" fill-rule="evenodd"/><path d="m2502.93 3529.19c-14.16 3.54-51.09 16.18-51.09 16.18-26.81 19.22-30.34 52.63-30.34 52.63s37.45-13.14 52.11-25.29c11.6-10.11 29.32-43.52 29.32-43.52z" fill="none" stroke="#1d1c1c" stroke-miterlimit="2.613" stroke-width="7.679986"/><path d="m2469.05 3575.21c-14.17 4.56-50.1 20.26-50.1 20.26-25.27 20.74-25.77 54.63-25.77 54.63s35.9-15.7 50.08-29.34c11.12-11.14 25.79-45.55 25.79-45.55" fill="#e6d35d" fill-rule="evenodd"/><path d="m2469.05 3575.21c-14.17 4.56-50.1 20.26-50.1 20.26-25.27 20.74-25.77 54.63-25.77 54.63s35.9-15.7 50.08-29.34c11.12-11.14 25.79-45.55 25.79-45.55z" fill="none" stroke="#1d1c1c" stroke-miterlimit="2.613" stroke-width="7.679986"/><path d="m2437.68 3626.32c-14.16 5.58-48.54 23.3-48.54 23.3-23.8 22.74-22.26 56.65-22.26 56.65s34.9-18.23 47.52-32.89c10.63-11.66 23.28-47.06 23.28-47.06" fill="#e6d35d" fill-rule="evenodd"/><path d="m2437.68 3626.32c-14.16 5.58-48.54 23.3-48.54 23.3-23.8 22.74-22.26 56.65-22.26 56.65s34.9-18.23 47.52-32.89c10.63-11.66 23.28-47.06 23.28-47.06z" fill="none" stroke="#1d1c1c" stroke-miterlimit="2.613" stroke-width="7.679986"/><path d="m2414.4 3672.36c-13.13 6.06-46 26.82-46 26.82-22.25 24.8-17.7 58.2-17.7 58.2s33.39-21.25 45-36.43c9.1-12.14 18.7-48.59 18.7-48.59" fill="#e6d35d" fill-rule="evenodd"/><path d="m2414.4 3672.36c-13.13 6.06-46 26.82-46 26.82-22.25 24.8-17.7 58.2-17.7 58.2s33.39-21.25 45-36.43c9.1-12.14 18.7-48.59 18.7-48.59z" fill="none" stroke="#1d1c1c" stroke-miterlimit="2.613" stroke-width="7.679986"/><path d="m2395.19 3721.43c-13.14 7.09-45.01 29.36-45.01 29.36-21.23 25.3-15.18 58.68-15.18 58.68s32.39-22.24 43.02-38.45c9.09-12.62 17.17-49.59 17.17-49.59" fill="#e6d35d" fill-rule="evenodd"/><path d="m2395.19 3721.43c-13.14 7.09-45.01 29.36-45.01 29.36-21.23 25.3-15.18 58.68-15.18 58.68s32.39-22.24 43.02-38.45c9.09-12.62 17.17-49.59 17.17-49.59z" fill="none" stroke="#1d1c1c" stroke-miterlimit="2.613" stroke-width="7.679986"/><path d="m2378.02 3770c-12.68 8.11-42.5 32.89-42.5 32.89-18.72 26.82-10.62 59.71-10.62 59.71s30.84-25.3 40.44-41.49c7.61-14.15 12.68-51.11 12.68-51.11" fill="#e6d35d"/><path d="m2378.02 3770c-12.68 8.11-42.5 32.89-42.5 32.89-18.72 26.82-10.62 59.71-10.62 59.71s30.84-25.3 40.44-41.49c7.61-14.15 12.68-51.11 12.68-51.11z" fill="none" stroke="#1d1c1c" stroke-miterlimit="2.613" stroke-width="7.679986"/><path d="m2364.35 3819.08c-11.11 9.13-39.45 36.45-39.45 36.45-16.18 28.83-5.04 60.68-5.04 60.68s28.31-27.83 36.39-45.53c6.59-14.18 8.1-51.6 8.1-51.6" fill="#e6d35d" fill-rule="evenodd"/><path d="m2364.35 3819.08c-11.11 9.13-39.45 36.45-39.45 36.45-16.18 28.83-5.04 60.68-5.04 60.68s28.31-27.83 36.39-45.53c6.59-14.18 8.1-51.6 8.1-51.6z" fill="none" stroke="#1d1c1c" stroke-miterlimit="2.613" stroke-width="7.679986"/><path d="m2355.24 3873.21c-11.61 9.62-39.45 36.93-39.45 36.93-15.69 28.86-4.03 60.73-4.03 60.73s27.81-28.34 35.9-45.56c6.07-14.66 7.58-52.1 7.58-52.1" fill="#e6d35d"/><path d="m2355.24 3873.21c-11.61 9.62-39.45 36.93-39.45 36.93-15.69 28.86-4.03 60.73-4.03 60.73s27.81-28.34 35.9-45.56c6.07-14.66 7.58-52.1 7.58-52.1z" fill="none" stroke="#1d1c1c" stroke-miterlimit="2.613" stroke-width="7.679986"/><path d="m2350.7 3923.82c-11.62 9.6-37.93 38.45-37.93 38.45-14.67 28.82-2.05 60.2-2.05 60.2s26.83-28.84 33.92-46.55c6.06-14.67 6.06-52.1 6.06-52.1" fill="#e6d35d" fill-rule="evenodd"/><path d="m2350.7 3923.82c-11.62 9.6-37.93 38.45-37.93 38.45-14.67 28.82-2.05 60.2-2.05 60.2s26.83-28.84 33.92-46.55c6.06-14.67 6.06-52.1 6.06-52.1z" fill="none" stroke="#1d1c1c" stroke-miterlimit="2.613" stroke-width="7.679986"/><path d="m2344.12 3974.41c-10.62 10.63-34.39 41.49-34.39 41.49-12.15 29.84 3.04 60.19 3.04 60.19s24.26-31.36 29.84-49.57c4.55-14.7 1.51-52.11 1.51-52.11" fill="#e6d35d" fill-rule="evenodd"/><path d="m2344.12 3974.41c-10.62 10.63-34.39 41.49-34.39 41.49-12.15 29.84 3.04 60.19 3.04 60.19s24.26-31.36 29.84-49.57c4.55-14.7 1.51-52.11 1.51-52.11z" fill="none" stroke="#1d1c1c" stroke-miterlimit="2.613" stroke-width="7.679986"/><path d="m2341.58 4024.99c-9.1 11.66-30.34 44.01-30.34 44.01-9.6 31.38 8.62 60.24 8.62 60.24s21.22-33.4 25.25-52.15c3.06-15.16-3.53-52.1-3.53-52.1" fill="#e6d35d" fill-rule="evenodd"/><path d="m2341.58 4024.99c-9.1 11.66-30.34 44.01-30.34 44.01-9.6 31.38 8.62 60.24 8.62 60.24s21.22-33.4 25.25-52.15c3.06-15.16-3.53-52.1-3.53-52.1z" fill="none" stroke="#1d1c1c" stroke-miterlimit="2.613" stroke-width="7.679986"/><path d="m2345.11 4073.07c-8.58 11.63-24.26 44.01-24.26 44.01-8.6 31.87 7.08 61.22 7.08 61.22s25.8-34.91 26.8-54.13c2.04-27.84-9.62-51.1-9.62-51.1" fill="#e6d35d" fill-rule="evenodd"/><path d="m2345.11 4073.07c-8.58 11.63-24.26 44.01-24.26 44.01-8.6 31.87 7.08 61.22 7.08 61.22s25.8-34.91 26.8-54.13c2.04-27.84-9.62-51.1-9.62-51.1z" fill="none" stroke="#1d1c1c" stroke-miterlimit="2.613" stroke-width="7.679986"/><path d="m2363.34 4171.21c-7.09 13.17-22.26 49.08-22.26 49.08-4.05 32.39 15.17 59.19 15.17 59.19s17.72-32.88 16.19-52.1c-2.03-27.84-9.1-56.17-9.1-56.17" fill="#e6d35d" fill-rule="evenodd"/><path d="m2363.34 4171.21c-7.09 13.17-22.26 49.08-22.26 49.08-4.05 32.39 15.17 59.19 15.17 59.19s17.72-32.88 16.19-52.1c-2.03-27.84-9.1-56.17-9.1-56.17z" fill="none" stroke="#1d1c1c" stroke-miterlimit="2.613" stroke-width="7.679986"/><path d="m2373.97 4229.39c-6.08 13.16-18.23 50.09-18.23 50.09-2.01 32.88 19.22 58.18 19.22 58.18s15.68-33.9 12.66-53.12c-4.05-27.83-13.65-55.15-13.65-55.15" fill="#e6d35d" fill-rule="evenodd"/><path d="m2373.97 4229.39c-6.08 13.16-18.23 50.09-18.23 50.09-2.01 32.88 19.22 58.18 19.22 58.18s15.68-33.9 12.66-53.12c-4.05-27.83-13.65-55.15-13.65-55.15z" fill="none" stroke="#1d1c1c" stroke-miterlimit="2.613" stroke-width="7.679986"/><path d="m2388.13 4280.49c-5.57 14.16-15.69 51.61-15.69 51.61.51 32.88 23.26 56.67 23.26 56.67s13.15-34.93 9.1-53.63c-5.56-27.33-16.67-54.65-16.67-54.65" fill="#e6d35d" fill-rule="evenodd"/><path d="m2388.13 4280.49c-5.57 14.16-15.69 51.61-15.69 51.61.51 32.88 23.26 56.67 23.26 56.67s13.15-34.93 9.1-53.63c-5.56-27.33-16.67-54.65-16.67-54.65z" fill="none" stroke="#1d1c1c" stroke-miterlimit="2.613" stroke-width="7.679986"/><path d="m2424.02 4382.18c-1.51 14.67-2.52 53.62-2.52 53.62 8.08 31.88 36.41 49.08 36.41 49.08s4.06-36.92-4.03-54.14c-12.15-24.77-29.86-48.56-29.86-48.56" fill="#e6d35d" fill-rule="evenodd"/><path d="m2424.02 4382.18c-1.51 14.67-2.52 53.62-2.52 53.62 8.08 31.88 36.41 49.08 36.41 49.08s4.06-36.92-4.03-54.14c-12.15-24.77-29.86-48.56-29.86-48.56z" fill="none" stroke="#1d1c1c" stroke-miterlimit="2.613" stroke-width="7.679986"/><path d="m2454.88 4429.73c-1.54 14.67-1 53.63-1 53.63 9.1 31.4 37.93 48.07 37.93 48.07s3.01-36.93-6.08-54.16c-13.15-24.25-30.85-47.54-30.85-47.54" fill="#e6d35d" fill-rule="evenodd"/><path d="m2454.88 4429.73c-1.54 14.67-1 53.63-1 53.63 9.1 31.4 37.93 48.07 37.93 48.07s3.01-36.93-6.08-54.16c-13.15-24.25-30.85-47.54-30.85-47.54z" fill="none" stroke="#1d1c1c" stroke-miterlimit="2.613" stroke-width="7.679986"/><path d="m2487.26 4481.36c0 15.16 3.54 53.63 3.54 53.63 11.63 30.85 41.47 45 41.47 45s0-37.42-10.63-53.62c-14.67-23.26-34.38-45.01-34.38-45.01" fill="#e6d35d" fill-rule="evenodd"/><path d="m2487.26 4481.36c0 15.16 3.54 53.63 3.54 53.63 11.63 30.85 41.47 45 41.47 45s0-37.42-10.63-53.62c-14.67-23.26-34.38-45.01-34.38-45.01z" fill="none" stroke="#1d1c1c" stroke-miterlimit="2.613" stroke-width="7.679986"/><path d="m2522.67 4528.39c1.47 14.68 10.1 52.62 10.1 52.62 15.69 29.34 47.03 39.48 47.03 39.48s-5.07-36.94-16.69-52.11c-18.21-20.74-40.44-39.99-40.44-39.99" fill="#e6d35d" fill-rule="evenodd"/><path d="m2522.67 4528.39c1.47 14.68 10.1 52.62 10.1 52.62 15.69 29.34 47.03 39.48 47.03 39.48s-5.07-36.94-16.69-52.11c-18.21-20.74-40.44-39.99-40.44-39.99z" fill="none" stroke="#1d1c1c" stroke-miterlimit="2.613" stroke-width="7.679986"/><path d="m2561.6 4571.41c3.53 14.66 16.68 51.1 16.68 51.1 19.24 26.81 51.58 33.37 51.58 33.37s-9.09-36.44-23.25-49.56c-20.24-18.74-45.01-34.91-45.01-34.91" fill="#e6d35d" fill-rule="evenodd"/><path d="m2561.6 4571.41c3.53 14.66 16.68 51.1 16.68 51.1 19.24 26.81 51.58 33.37 51.58 33.37s-9.09-36.44-23.25-49.56c-20.24-18.74-45.01-34.91-45.01-34.91z" fill="none" stroke="#1d1c1c" stroke-miterlimit="2.613" stroke-width="7.679986"/><path d="m2607.62 4607.32c4.55 14.18 20.24 50.09 20.24 50.09 20.72 25.3 53.61 29.35 53.61 29.35s-11.64-35.42-26.83-47.55c-21.25-17.71-47.02-31.89-47.02-31.89" fill="#e6d35d" fill-rule="evenodd"/><path d="m2607.62 4607.32c4.55 14.18 20.24 50.09 20.24 50.09 20.72 25.3 53.61 29.35 53.61 29.35s-11.64-35.42-26.83-47.55c-21.25-17.71-47.02-31.89-47.02-31.89z" fill="none" stroke="#1d1c1c" stroke-miterlimit="2.613" stroke-width="7.679986"/><path d="m2656.68 4641.73c5.05 13.66 22.76 48.56 22.76 48.56 22.26 24.26 55.12 26.31 55.12 26.31s-13.65-34.9-29.33-46.04c-22.25-16.18-48.55-28.83-48.55-28.83" fill="#e6d35d" fill-rule="evenodd"/><path d="m2656.68 4641.73c5.05 13.66 22.76 48.56 22.76 48.56 22.26 24.26 55.12 26.31 55.12 26.31s-13.65-34.9-29.33-46.04c-22.25-16.18-48.55-28.83-48.55-28.83z" fill="none" stroke="#1d1c1c" stroke-miterlimit="2.613" stroke-width="7.679986"/><path d="m2708.77 4674.09c6.57 13.17 28.33 45.55 28.33 45.55 25.77 21.24 58.16 19.23 58.16 19.23s-17.7-33.4-34.39-42.01c-20.23-10.1-52.1-22.77-52.1-22.77" fill="#e6d35d" fill-rule="evenodd"/><path d="m2708.77 4674.09c6.57 13.17 28.33 45.55 28.33 45.55 25.77 21.24 58.16 19.23 58.16 19.23s-17.7-33.4-34.39-42.01c-20.23-10.1-52.1-22.77-52.1-22.77z" fill="none" stroke="#1d1c1c" stroke-miterlimit="2.613" stroke-width="7.679986"/><path d="m2762.4 4699.39c8.58 12.15 34.39 41.49 34.39 41.49 27.79 17.69 62.7 11.64 62.7 11.64s-24.28-30.87-42.47-37.45c-22.29-7.58-54.62-15.68-54.62-15.68" fill="#e6d35d" fill-rule="evenodd"/><path d="m2762.4 4699.39c8.58 12.15 34.39 41.49 34.39 41.49 27.79 17.69 62.7 11.64 62.7 11.64s-24.28-30.87-42.47-37.45c-22.29-7.58-54.62-15.68-54.62-15.68z" fill="none" stroke="#1d1c1c" stroke-miterlimit="2.613" stroke-width="7.679986"/><path d="m2824.09 4718.63c10.11 11.14 36.41 36.42 36.41 36.42 38.94 14.17 64.73 3.52 64.73 3.52s-25.79-29.83-45.01-32.35c-19.22-2.03-56.13-7.59-56.13-7.59" fill="#e6d35d" fill-rule="evenodd"/><path d="m2824.09 4718.63c10.11 11.14 36.41 36.42 36.41 36.42 38.94 14.17 64.73 3.52 64.73 3.52s-25.79-29.83-45.01-32.35c-19.22-2.03-56.13-7.59-56.13-7.59z" fill="none" stroke="#1d1c1c" stroke-miterlimit="2.613" stroke-width="7.679986"/><path d="m2888.3 4728.74c11.14 9.6 40.46 32.39 40.46 32.39 27.84 14.15 62.71-3.54 62.71-3.54s-21.23-18.23-39.92-21.77c-17.72-3.55-63.25-7.08-63.25-7.08" fill="#e6d35d" fill-rule="evenodd"/><path d="m2888.3 4728.74c11.14 9.6 40.46 32.39 40.46 32.39 27.84 14.15 62.71-3.54 62.71-3.54s-21.23-18.23-39.92-21.77c-17.72-3.55-63.25-7.08-63.25-7.08z" fill="none" stroke="#1d1c1c" stroke-miterlimit="2.613" stroke-width="7.679986"/><path d="m2403.81 4329.06c-4.08 14.15-10.13 52.62-10.13 52.62 3.55 32.88 28.83 54.12 28.83 54.12s9.61-35.92 3.53-54.64c-8.59-26.3-22.23-52.1-22.23-52.1" fill="#e6d35d" fill-rule="evenodd"/><path d="m2403.81 4329.06c-4.08 14.15-10.13 52.62-10.13 52.62 3.55 32.88 28.83 54.12 28.83 54.12s9.61-35.92 3.53-54.64c-8.59-26.3-22.23-52.1-22.23-52.1z" fill="none" stroke="#1d1c1c" stroke-miterlimit="2.613" stroke-width="7.679986"/><path d="m2354.25 4119.62c-7.61 12.64-25.3 47.56-25.3 47.56-6.07 32.36 12.13 60.2 12.13 60.2s22.78-36.41 22.26-56.17c-.5-27.32-9.09-51.59-9.09-51.59" fill="#e6d35d" fill-rule="evenodd"/><path d="m2354.25 4119.62c-7.61 12.64-25.3 47.56-25.3 47.56-6.07 32.36 12.13 60.2 12.13 60.2s22.78-36.41 22.26-56.17c-.5-27.32-9.09-51.59-9.09-51.59z" fill="none" stroke="#1d1c1c" stroke-miterlimit="2.613" stroke-width="7.679986"/><path d="m2725.46 3338.46c-19.73-2.52-45.01 0-45.01 0-49.06 13.16-54.62 30.86-54.62 30.86s41.47 2.03 55.64-2.02c20.72-6.06 43.99-28.84 43.99-28.84" fill="#e6d35d" fill-rule="evenodd"/><path d="m2725.46 3338.46c-19.73-2.52-45.01 0-45.01 0-49.06 13.16-54.62 30.86-54.62 30.86s41.47 2.03 55.64-2.02c20.72-6.06 43.99-28.84 43.99-28.84z" fill="none" stroke="#1d1c1c" stroke-miterlimit="2.613" stroke-width="7.679986"/><path d="m3005.15 4726.22c4.03 0 52.59 10.62 51.55 15.19-1.48 9.09-34.38 18.18-49.54 18.18-20.75 0-27.31-8.09-60.69-19.71 0 0 16.19-12.65 58.68-13.66" fill="#e6d35d" fill-rule="evenodd"/><path d="m3005.15 4726.22c4.03 0 52.59 10.62 51.55 15.19-1.48 9.09-34.38 18.18-49.54 18.18-20.75 0-27.31-8.09-60.69-19.71 0 0 16.19-12.65 58.68-13.66z" fill="none" stroke="#1d1c1c" stroke-miterlimit="2.613" stroke-width="7.679986"/><g fill="#e6d35d" fill-rule="evenodd"><path d="m2454.38 4287.09 11.64 15.17-10.65 15.69 17.73-6.6 12.11 15.17-.49-19.22 18.21-6.58-18.73-5.06-.99-19.2-10.63 15.67z"/><path d="m2415.43 4178.3 12.14 15.68-11.13 15.69 18.22-6.6 12.13 15.19-.52-19.21 17.72-6.6-18.21-5.04-.51-19.73-11.14 16.2z"/><path d="m3412.77 4287.09-11.62 15.17 10.62 15.69-18.2-6.6-11.64 15.17.51-19.22-18.2-6.58 18.7-5.06.53-19.2 11.11 15.67z"/><path d="m3451.23 4178.3-11.65 15.68 10.63 15.69-18.21-6.6-11.63 15.19.49-19.21-18.19-6.6 18.71-5.04.51-19.73 10.63 16.2z"/></g><path d="m2940.51 3427.75c245.31 0 443.96 261.31 443.96 583.12 0 322.34-196.56 571.11-441.34 573.2-241.14 2.6-447.15-250.86-447.15-573.2 0-321.81 198.67-583.12 444.53-583.12z" fill="none" stroke="#e6d35d" stroke-miterlimit="2.613" stroke-width="6.671988"/><g fill-rule="evenodd"><g fill="#e6d35d"><path d="m2553.5 4475.28c-7.07 6.08-9.61 6.57-15.15.51l-2.05 1.48 16.7 19.25 2-2.02c-6.05-6.6-5.04-9.12 2.05-15.18l19.22-17.21c11.12-9.6 11.12-21.24-2.04-35.92-10.62-12.13-22.75-16.18-32.86-7.58l-21.25 18.73c-6.57 6.07-9.61 6.57-14.67 0l-2.01 2.01 19.71 23.29 2.04-1.51c-5.58-7.1-5.07-9.65 2.02-15.72l17.69-15.68c8.6-7.07 18.21-11.63 28.83 1.53 12.13 13.66 5.56 21.76-3.04 29.35z"/><path d="m2641.52 4514.24-20.75 23.76c-6.08 7.09-8.6 7.61-15.17 2.03l-2.03 2.02 19.22 16.7 1.51-2.02c-6.06-5.57-5.56-8.59 0-15.68l30.86-35.44-2.52-2.5-69.3 8.08 24.28-28.33c6.06-7.07 8.6-7.58 15.17-2.02l1.51-2.03-18.7-16.7-2.03 2.03c6.57 6.07 6.57 8.59 0 15.68l-21.25 24.81c-6.05 7.07-9.11 7.58-15.16 2.02l-2.03 2.02 14.16 12.13z"/><path d="m2681.47 4541.53c5.06-7.57 7.56-8.59 15.17-3.01l1.5-2.52-25.78-18.23-1.52 2.52c7.07 5.08 7.07 7.6 1.52 15.19l-18.73 27.32c-5.05 7.08-7.57 8.08-15.17 3.04l-1.51 2.54 25.82 17.69 1.48-2.02c-7.07-5.05-7.07-7.59-1.48-15.67z"/><path d="m2731.02 4572.41c4.55-8.1 7.09-9.09 15.68-4.55l1.52-2.02-29.35-16.7-1.51 2.54c8.6 5.05 8.6 7.57 4.57 15.18l-17.71 30.85c-2.03 3.55-3.04 9.11-9.61 5.06-9.61-5.57-14.16-15.68-15.17-24.29l-3.04-.51-.49 17.73 54.6 30.86 14.18-9.62-1.54-2.04c-8.07 3.54-19.21 4.06-28.83-.5-6.07-4.05-2.51-7.58-.49-11.14z"/><path d="m2805.36 4612.36-2.52-.99c-4.05 10.13-13.14 7.07-20.73 4.05l-4.55-2.02 7.07-17.7c2.54-6.59 4.03-7.6 13.65-4.07 16.69 6.08 18.22 10.63 24.77 24.29l2.55.51-1.51-18.23-54.62-20.73-1.02 2.52c8.1 3.04 8.6 5.57 5.05 14.19l-11.62 30.85c-3.04 8.6-5.56 10.11-13.66 7.09l-1.03 2.52 53.63 20.75 12.13-10.62-2.01-2.54c-12.66 6.07-17.21 7.59-32.39 1.53-10.1-4.08-10.1-5.57-7.06-13.16l5.06-14.17 4.56 1.51c9.6 3.56 15.68 7.09 13.14 16.2l2.54 1z"/><path d="m2838.74 4605.29-.5 2.52c8.58 1.54 9.61 4.08 8.1 13.17l-6.07 32.38c-2.03 9.09-4.06 11.14-12.16 9.61l-.49 2.54 29.33 5.56c9.11 1.52 18.23 3.02 29.32-.51 11.14-3.56 17.21-11.63 18.73-20.74 4.05-20.25-11.64-34.4-36.94-38.95z"/></g><path d="m2857.45 4624.02c1.53-8.6 3.55-10.13 12.14-8.6 20.23 3.54 24.79 17.2 22.26 31.35-3.04 14.68-11.11 24.3-32.36 20.75-8.6-1.54-9.61-3.54-8.08-12.13z" fill="#1d1c1c"/><path d="m3019.82 4657.41-3.57-1.02c-4.04 7.59-11.62 15.68-22.24 17.2-8.08 1.02-15.18-2.52-15.67-8.59-1.02-7.59 8.07-11.64 15.67-14.7 13.15-5.05 26.81-10.1 24.78-23.25-1.51-10.11-13.64-15.68-26.8-14.17-6.56 1.01-12.14 4.56-16.69 5.06-2.02.5-5.06-.5-6.57-1.51l-6.07 17.2 3.55.51c5.55-7.58 14.17-16.7 25.26-18.22 8.61-1.02 16.7 2.02 17.71 8.59 3.03 19.76-42.5 16.2-39.44 38.46 1.55 10.1 12.11 15.17 25.28 13.16 3.54-.52 5.06-1 8.1-2.54 2.55-1 3.54-1.52 6.06-1.52 1.53-.5 4.04-.5 5.58.52z" fill="#e6d35d"/><path d="m3063.3 4610.87c-3.03-9.13-2-11.63 7.09-14.68l-.52-2.54-31.86 10.63.5 2.54c9.63-3.04 11.65-1.53 14.66 7.58l11.14 32.89c1.02 4.05 4.05 8.59-3.01 10.62-10.63 3.54-21.25.52-27.84-5.07l-2.54 2.05 12.65 12.11 59.68-19.71 2.02-17.2h-2.5c-2.52 8.1-9.63 17.2-19.74 20.73-7.07 2.54-7.07-3.02-8.58-7.06z" fill="#e6d35d"/><path d="m3155.86 4621.99-5.07-49.58c-.49-3.55-1.5-11.11 0-14.66.52-2.04 2.54-4.06 4.54-5.57l-.98-2.55-27.83 16.21 1.52 2.02c3.03-1.52 8.59-5.56 11.15-2.02.48 1.5 1.01 4.54 1.01 5.57l.98 11.62-24.25 13.67-2.54-2.03c-2.53-1.52-8.58-5.56-9.59-8.1-2.03-3.54 2.51-7.09 6.54-9.1l-1.48-2.54-24.29 14.18 1.51 2c8.09-4.54 14.15 0 19.21 4.08l39.96 29.84z" fill="#e6d35d"/><path d="m3144.24 4616.94-23.3-17.21 20.24-11.63z" fill="#1d1c1c"/><path d="m3192.27 4533.96c-6.08-7.1-6.08-9.6 2.02-16.19l-2.02-2.03-26.3 21.25 1.51 2.03c8.09-6.08 10.65-5.56 16.2 2.03l21.76 27.33c2.52 3.03 7.07 6.03.98 11.1-8.59 6.59-19.71 7.09-27.79 4.57l-1.53 2.52 15.69 7.61 49.57-39.48-4.07-16.7-2.54.52c.51 8.57-2.5 19.74-11.08 26.8-6.1 4.06-8.12-.5-10.65-3.53z" fill="#e6d35d"/><path d="m3259.53 4483.36-2.51 2.02c7.59 8.1 1.01 14.68-5.57 20.23l-3.54 3.06-12.66-14.69c-4.55-5.06-5.02-7.07 2.55-13.64 12.64-12.15 17.2-11.64 32.86-11.14l1.01-2.52-16.67-6.07-43 39.45 2.02 2.02c6.1-6.06 8.61-5.04 15.18 1.51l21.74 24.3c6.57 7.1 6.57 9.62.51 15.18l1.51 2.54 42.48-38.46-4.03-16.18-2.52 1c-.53 14.16-1.53 18.71-13.17 29.33-8.6 7.61-9.61 7.09-15.16.52l-10.6-11.14 3-3.01c7.6-7.1 14.16-10.63 20.76-4.56l2-2.04z" fill="#e6d35d"/><path d="m3336.93 4440.35-3.04 1.54c1.49 8.59 1.49 19.7-5.57 27.83-5.55 6.07-13.15 7.55-18.2 3.53-5.59-5.06-1-14.16 3.02-21.24 6.58-12.66 13.68-24.8 3.55-33.91-8.08-7.08-20.73-3.54-29.33 6.59-4.56 5.56-6.58 11.63-9.61 14.66-1.53 2.04-4.03 3.05-6.08 3.54l7.09 16.7 3.03-1.52c-1.01-9.6-.5-22.27 7.1-30.86 5.56-6.57 13.65-9.11 19.22-4.55 14.66 12.64-22.28 39.45-5.57 54.61 8.07 7.09 19.2 4.09 28.29-6.04 2.05-3.04 3.06-4.55 4.55-7.59 1.55-2.51 1.55-3.03 3.06-5.07 1.54-1.52 3.04-2.53 5.07-3.03z" fill="#e6d35d"/><path d="m2429.58 4025.51-1.51 3.53c6.59 5.56 14.18 13.66 13.66 24.28 0 8.61-5.07 14.68-11.14 14.68-7.56 0-10.11-10.11-12.11-18.23-3.05-13.12-5.57-27.8-18.75-27.8-10.59 0-18.18 10.63-18.18 24.27 0 6.58 2.02 12.67 2.02 17.21 0 2.01-1.01 5.07-2.53 6.58l16.19 8.1 1.51-3.04c-7.08-7.09-14.65-16.7-14.65-28.33 0-8.09 4.54-15.69 11.61-15.69 19.23 0 9.1 44.54 31.36 45.02 10.62 0 17.21-9.61 17.69-23.27 0-3.52-.48-5.05-1.49-8.59-.52-2.02-1.01-3.04-1.01-5.56 0-2.02.49-4.07 2.02-5.56z" fill="#e6d35d"/><path d="m2398.74 3989.59c-9.11-.51-11.12-2.55-10.61-11.11h-2.56l-2.51 30.84 3.03.49c.5-9.09 3.05-10.1 12.16-9.6l32.86 2.02c9.09 1.02 11.14 2.52 10.62 11.64h2.54l3.02-37.95c.51-12.65-3.56-24.77-14.15-25.29-13.67-1.01-18.21 14.68-19.25 30.35l-.48 9.12z" fill="#e6d35d"/><path d="m2416.95 3990.1v-4.08c1.01-13.13 4.03-24.24 15.69-23.24 8.57.49 11.63 8.6 10.62 18.7-.52 9.61-4.08 10.1-10.62 9.61z" fill="#1d1c1c"/><path d="m2414.93 3892.45-.53 3.02c10.63 1.53 9.62 10.64 8.11 19.23l-.5 4.56-19.21-2.53c-6.6-1.02-8.11-2.51-6.6-12.65 2.05-17.7 6.08-19.72 17.69-29.35l-.48-2.53-16.69 5.55-8.09 58.2h3.03c1.01-8.59 3.53-9.6 12.64-8.09l32.36 4.55c9.61 1.01 11.64 3.06 10.13 11.14l3.02.51 7.61-56.68-13.15-9.11-1.53 2.54c8.6 10.63 11.14 14.66 8.6 30.35-1.53 11.14-3.04 11.62-11.14 10.62l-15.69-2.01.52-4.56c1.53-10.14 4.05-17.2 13.17-16.69l.5-3.05z" fill="#e6d35d"/><path d="m2460.43 3801.39-1.48 2.53c4.03 7.08 9.09 19.19 7.07 28.83-4.05 17.69-19.75 19.21-30.88 16.69-11.62-2.54-25.79-14.17-21.73-31.87 2.53-11.62 10.11-17.71 18.71-21.78l-.49-2.5c-11.15 3.53-20.75 12.66-23.77 27.32-5.06 20.74 5.05 36.91 20.73 40.44 7.06 1.55 15.68 0 22.75-4.01 8.08-4.07 15.17-11.65 17.71-22.27.99-3.53.99-6.56.48-9.12 0-2.54 0-4.54.51-7.09.52-2.51 2.03-4.54 3.57-6.55z" fill="#e6d35d"/><path d="m2439.71 3759.9c-9.12-3.04-10.63-5.06-8.08-13.66l-2.55-.51-9.11 29.84 2.54 1.01c2.52-8.58 5.06-9.1 14.15-6.58l31.38 9.62c8.6 2.53 10.62 4.56 8.09 13.16l2.53 1.01 9.1-29.83-2.55-1.02c-2.52 8.59-5.56 9.08-14.16 6.57z" fill="#e6d35d"/><path d="m2506.46 3719.92-34.89-35.41c-2.52-2.53-8.07-8.08-9.11-11.13-.49-2.51-.49-5.07 0-7.58l-2.03-1.03-12.13 29.34 2.52 1.02c1.54-3.01 3.56-10.11 7.59-8.09 1.01.53 3.56 2.52 4.05 3.53l8.1 8.09-10.13 25.82h-3.53c-3.02.51-10.11 1.03-12.63 0-4.07-1.51-2.02-7.1-.54-11.65l-2.52-1.01-10.62 25.81 2.55 1.02c3.52-8.61 11.13-8.61 17.68-8.61l50.08-1.52z" fill="#e6d35d"/><path d="m2494.32 3722.97-29.34.49 9.13-21.25z" fill="#1d1c1c"/><path d="m2509.5 3607.09-17.2-1-27.32 49.56 2.54 1.54c4.05-8.09 6.59-8.09 14.68-3.54l29.32 15.67c7.59 4.56 9.09 7.11 4.55 14.68l2.54 1.02 15.15-27.31-2.01-1.55c-4.54 8.12-7.09 8.12-15.16 3.57l-30.36-16.7c-6.58-3.55-8.09-5.06-3.02-14.66 7.07-12.66 13.64-16.22 25.77-18.23z" fill="#e6d35d"/><path d="m2553.5 3525.63c-16.19 16.21-13.66 36.43-2.02 47.58 11.13 11.15 31.36 12.63 47.53-3.03 15.68-16.2 13.16-36.95 1.53-48.07-11.64-11.15-31.36-12.16-47.04 3.52" fill="#e6d35d"/><path d="m2561.08 3563.59c-7.09-7.09-16.7-22.76-4.55-34.92 12.14-12.65 27.32-3.53 34.91 3.54 7.57 7.6 16.18 22.78 4.54 34.94-12.13 12.13-27.81 3.51-34.9-3.56" fill="#1d1c1c"/><path d="m2617.23 3485.18c-6.57-6.57-7.09-9.09-.52-15.7l-2.02-1.51-22.75 21.25 2.04 2.02c6.04-6.06 8.58-5.56 15.16 1.54l22.76 23.76c6.06 6.57 6.56 9.09.51 15.18l1.5 2.02 27.82-25.8c9.11-8.62 14.18-20.74 6.57-28.32-9.1-10.14-22.76-1.55-34.39 9.6l-7.07 6.57z" fill="#e6d35d"/><path d="m2629.86 3497.82 3.05-2.53c9.62-9.61 18.71-15.67 26.8-7.06 6.07 6.05 3.06 14.15-4.55 21.25-7.07 6.54-10.11 4.54-14.16 0z" fill="#1d1c1c"/><path d="m2698.64 3426.5-2.53 2c6.08 9.13-1.01 14.69-8.57 19.25l-3.55 2.53-11.15-16.22c-3.53-5.56-3.53-7.56 4.57-13.14 14.68-10.11 19.23-9.1 34.4-6.56l1.5-2.02-15.69-8.61-48.54 32.88 1.53 2.51c7.57-5.06 10.11-4.05 15.17 3.56l18.21 27.32c5.56 7.6 5.56 10.11-1.51 15.18l1.51 2.02 47.03-31.87-2.02-16.21-3.04.55c-2.02 13.63-3.03 18.18-16.7 27.27-9.09 6.09-10.62 5.07-15.17-1.48l-8.59-13.16 3.53-2.53c8.59-5.58 15.19-8.61 20.75-1.54l2.54-1.5z" fill="#e6d35d"/><path d="m2751.25 3409.29-6.56-14.16c-4.05-8.63-3.56-11.15 4.54-14.69l-1.5-2.51-27.85 12.64 1.03 2.54c7.57-3.55 10.11-2.06 13.65 6.56l13.66 29.33c3.03 6.07 5.56 10.67-4.06 15.19l1.02 2.54 29.33-13.66c11.65-5.55 24.78-15.18 19.74-25.8-3.54-8.09-15.18-9.13-24.78-5.58l5.04-24.28c1.53-6.6 1.01-9.6 9.12-13.16l-1-2.52-16.7 7.59-7.61 36.95z" fill="#e6d35d"/><path d="m2753.26 3411.82 4.57-2.02c9.61-5.07 21.24-6.07 25.27 2.54 3.56 6.55-3.53 14.16-11.61 18.19-8.1 3.53-9.09 1.53-11.63-4.03z" fill="#1d1c1c"/><path d="m2847.34 3409.8 7.61-49.09c.48-3.52 1.01-11.13 3.53-14.15 1.5-2.02 3.53-3.55 6.07-4.55l-.52-2.54-31.36 8.6 1.01 2.54c3.55-1.03 10.12-3.57 11.13 1.01.52 1.01 0 4.03-.51 5.57l-1.51 11.12-26.81 7.08-2.02-3.03c-2.01-2.03-6.58-7.59-7.57-9.61-1.03-4.06 4.55-6.08 9.1-7.1l-1.01-3.02-26.83 7.58.52 2.54c9.11-2.54 13.65 3.52 17.71 8.6l30.85 38.94z" fill="#e6d35d"/><path d="m2837.73 3401.69-17.69-22.73 22.23-6.1z" fill="#1d1c1c"/><path d="m2913.59 3349.08c-1.01-9.12.52-11.64 10.13-12.65v-2.51l-33.38 3.01v2.54c10.11-1.01 11.64 1.01 12.11 10.63l3.56 34.92c0 4.04 2.03 9.09-5.56 9.6-11.12 1.02-20.23-4.55-25.79-11.12l-2.54 1.01 9.11 14.67 62.2-5.57 6.09-16.2-3.05-.51c-4.04 7.61-12.64 14.68-22.75 15.69-7.59 1.02-6.58-4.55-7.06-8.61z" fill="#e6d35d"/><path d="m2977.83 3352.12c1.52-9.11 3.53-11.12 12.15-9.63l.5-2.53-31.35-5.56v3.04c8.59 1.52 9.6 3.56 8.08 13.17l-5.55 32.36c-1.52 9.12-3.05 11.14-12.14 9.62v2.54l30.86 5.06.48-2.55c-8.6-1.51-10.11-4.03-8.6-13.13z" fill="#e6d35d"/><path d="m3041.07 3350.61c-21.76-6.07-37.95 6.06-41.99 21.25-4.06 15.66 4.54 34.41 26.3 39.96 22.23 5.56 38.42-6.59 42.47-22.26 4.04-15.68-4.55-33.39-26.78-38.95" fill="#e6d35d"/><path d="m3012.21 3375.9c2.55-9.63 11.65-19.23 27.84-21.25 17.69-2.02 17.17 21.74 14.15 32.37-2.54 9.62-11.14 25.32-27.31 20.73-16.67-4.54-17.21-21.73-14.68-31.85" fill="#1d1c1c"/><path d="m3146.25 3406.27-12.15 28.8c-3.53 8.12-6.06 9.63-14.14 6.09l-1.01 2.53 23.24 10.13 1.03-2.54c-7.59-3.05-8.1-6.05-4.57-14.67l18.73-43-3.53-1.52-63.73 27.82 14.68-33.41c4.04-8.57 6.03-10.11 14.15-6.56l1.01-2.53-23.27-10.11-.99 2.5c7.55 3.57 8.57 6.1 4.55 14.71l-12.69 29.85c-4.01 8.61-6.04 10.1-14.14 6.56l-1.02 2.53 17.21 7.6z" fill="#e6d35d"/><path d="m3201.88 3474.06-2.02-2.53c-8.09 3.02-19.22 4.56-28.32-1-7.07-4.58-9.61-11.67-6.08-17.23 3.56-6.07 13.67-3.53 21.25-.52 13.15 4.58 26.81 9.62 33.88-2.02 5.56-9.09.52-20.73-11.12-27.79-6.05-4.08-12.15-5.08-15.67-7.61-2.03-1-3.53-3.02-4.55-5.07l-15.2 9.11 2.04 3.05c9.1-2.54 21.74-4.08 31.34 2.01 7.1 4.54 11.14 12.66 7.61 18.73-10.61 16.19-43.01-16.19-55.14 3.02-5.55 9.12-1.01 19.74 10.62 26.82 3.05 2.04 5.05 2.54 8.11 3.54 2.5.49 3.54 1.03 5.56 2.04 1.53 1.01 3.54 2.52 4.05 4.55z" fill="#e6d35d"/><path d="m3286.85 3557.52-1.02-2.53c-8.6-.51-21.22-4.04-27.8-11.65-11.64-14.15-3.53-27.32 5.04-34.88 9.12-7.59 27.31-12.14 38.96 2.5 7.57 8.63 7.57 18.23 6.08 27.33l2.01 1.03c4.04-10.65 2.54-23.79-7.08-34.92-13.65-16.69-32.9-18.21-45.01-8.08-5.57 5.06-9.61 12.64-10.63 20.72-1.51 8.59 0 19.24 7.1 27.32 2.52 3.06 5.03 5.07 7.06 6.08 2.05 1.52 4.04 3.04 5.56 4.55 1.53 2.53 2.55 4.55 3.02 7.07z" fill="#e6d35d"/><path d="m3353.61 3572.71c-12.64-18.73-32.38-20.25-46.02-11.66-13.14 9.13-18.7 28.86-6.07 47.56 12.64 18.73 32.86 19.76 46.54 11.14 13.15-9.11 18.17-28.32 5.55-47.04" fill="#e6d35d"/><path d="m3315.17 3572.71c8.11-5.56 25.8-11.66 35.4 2.04 9.63 15.16-2.02 27.79-10.59 33.86-8.61 6.09-25.31 11.64-34.93-2.52-9.61-14.66 1.53-27.82 10.12-33.38" fill="#1d1c1c"/><path d="m3408.22 3703.23c8.62-4.05 11.14-3.56 15.2 4.56l2.51-1.03-14.16-28.83-2.53 1.5c4.07 7.61 3.06 10.13-5.55 14.2l-36.42 17.69 37.42-48.57-1.51-3.53h-61.7v-.51l36.91-17.71c8.09-4.04 10.63-4.04 14.68 4.03l2.53-1.48-11.13-22.28-2.54 1.03c4.05 7.56 2.54 10.11-6.07 14.16l-29.34 14.15c-8.58 4.05-11.14 4.05-14.67-4.05l-2.51 1.01 10.09 21.25 54.14.5-33.37 42.5 10.1 21.25 2.53-1.01c-3.54-7.58-2.02-10.1 6.09-14.16z" fill="#e6d35d"/><path d="m3444.64 3809.96c8.61-3 11.13-2.02 13.67 6.09l2.52-.5-9.12-30.37-2.52 1.03c2.52 8.09 1.02 10.61-8.08 13.15l-38.44 12.14v-.5l44.02-42-1.01-4.06-60.72-9.1v-.49l38.96-12.16c9.1-2.51 11.62-2.02 14.17 6.58l2.51-1.02-7.58-24.27-2.54 1.03c2.54 8.08 1 10.1-8.08 13.14l-31.35 9.58c-9.12 2.56-11.66 2.05-14.16-6.54l-2.51.99 7.06 22.78 53.58 8.09-39.42 37.45 7.07 22.26 2.02-.51c-2.02-8.1-.48-10.63 8.08-13.17z" fill="#e6d35d"/><path d="m3408.22 3882.34 48.57 11.14c3.52.98 11.13 2.5 13.65 5.04 2.03 1.52 3.04 4.04 4.06 6.55l2.52-.48-5.56-31.38-2.54.52c0 3.54 2.02 10.11-2.01 11.11-1.53 0-4.55-.48-5.57-1l-11.13-2.52-4.53-27.82 2.5-2.04c2.52-1.5 8.11-5.56 10.61-6.07 4.06-.99 5.59 5.05 6.59 9.12l2.54-.51-4.55-27.33-3.06.52c1.54 9.09-4.54 13.14-9.61 16.7l-41.94 27.79z" fill="#e6d35d"/><path d="m3417.32 3873.21 24.28-16.17 4.08 23.27z" fill="#1d1c1c"/><path d="m3466.39 3975.42-30.85 2.52c-9.61.54-11.62-1.01-12.63-9.6h-2.54l1.52 25.29h3.02c-.52-8.59 1.54-10.13 10.63-11.14l47.04-3.01v-3.56l-54.62-43.51 36.9-2.53c9.12-1 11.64.51 12.16 9.12l3.04-.52-2.03-25.27-2.54.49c.51 8.6-1.51 10.12-11.11 11.14l-32.38 2c-9.6.52-11.63-.49-12.64-9.61l-2.52.52 1.01 18.73z" fill="#e6d35d"/><path d="m3483.57 4006.78h-2.5c-.53 8.6-3.04 9.64-12.15 9.64l-32.87-2.06c-9.12-.49-11.66-2.02-11.14-10.62h-2.51l-1.54 29.37c-.49 9.1-.49 18.19 4.58 28.82 5.04 10.62 13.64 15.68 22.74 16.2 20.74 1 32.89-16.68 33.9-42z" fill="#e6d35d"/><path d="m3467.4 4027.53c8.6.52 10.63 2 10.63 10.62-1.53 20.76-14.66 26.83-28.84 26.31-14.17-1.01-25.27-8.09-24.28-28.85.53-9.09 2.02-10.1 10.63-9.6z" fill="#1d1c1c"/><path d="m3023.36 3475.57-24.8 496.81c91.05-41.99 77.4-160.88 77.4-160.88 13.65 3.54 82.93 17.69 125.41 97.65 63.24 118.38-34.89 240.81-118.83 338.96-83.98 97.65-149.72 286.35-149.72 286.35s-66.27-188.7-150.19-286.35c-83.99-98.15-181.58-220.58-118.88-338.96 42.49-79.96 111.77-94.11 125.95-97.65 0 0-14.18 118.89 76.85 160.88l-24.75-496.81s92.03-36.45 181.56 0" fill="#e6d35d"/><path d="m3011.7 3468.48-20.23 518.06c113.8-36.92 93.09-163.43 93.09-163.43 13.14 3.56 63.71 18.24 105.17 93.1 64.77 115.37-35.88 232.22-115.79 323.8-73.34 82.48-140.61 271.18-140.61 271.18s-62.2-179.09-141.11-271.18c-80.41-93.58-174.47-212.98-116.83-321.24 39.95-75.4 89.51-91.06 105.19-96.65 0 0-17.19 127.5 95.09 163.42l-23.27-515.54s66.76-22.25 159.3-1.52" fill="#e6d35d"/></g><path d="m3011.7 3468.48-20.23 518.06c113.8-36.92 93.09-163.43 93.09-163.43 13.14 3.56 63.71 18.24 105.17 93.1 64.77 115.37-35.88 232.22-115.79 323.8-73.34 82.48-140.61 271.18-140.61 271.18s-62.2-179.09-141.11-271.18c-80.41-93.58-174.47-212.98-116.83-321.24 39.95-75.4 89.51-91.06 105.19-96.65 0 0-17.19 127.5 95.09 163.42l-23.27-515.54s66.76-22.25 159.3-1.52z" fill="none" stroke="#1d1c1c" stroke-miterlimit="2.613" stroke-width="7.679986"/><path d="m2933.33 4511.19v-1051.31m-24.8 985.53v-974.88m-26.26 916.7v-917.23m-26.31 863.61v-357.69m-24.78 317.71v-333.9m-27.84 294.97v-324.31m-27.82 285.85v-390.59m-24.27 364.78v-353.13m-24.77 312.66v-294.94m-24.29 263.57v-238.79m-24.78 188.2v-147.73m281.2 535.77v-989.1m24.28 926.37v-917.74m24.77 865.12v-363.25m27.82 316.19v-328.32m27.82 289.39v-324.31m27.81 285.85v-390.59m24.81 364.78v-353.13m24.28 319.75v-305.59m27.82 265.1v-233.35m24.77 186.32v-143.22" fill="none" stroke="#1d1c1c" stroke-miterlimit="2.613" stroke-width="7.679986"/><path d="m2859.49 3914.7h149.69s14.18-2.02 14.18-16.18c0-13.68-7.11-17.2-12.15-17.2-10.61 0-155.25 0-155.25 0s-14.16 8.59-12.16 14.15c1.53 5.07 1.53 19.23 15.69 19.23" fill="#e6d35d" fill-rule="evenodd"/><path d="m2859.49 3914.7h149.69s14.18-2.02 14.18-16.18c0-13.68-7.11-17.2-12.15-17.2-10.61 0-155.25 0-155.25 0s-14.16 8.59-12.16 14.15c1.53 5.07 1.53 19.23 15.69 19.23z" fill="none" stroke="#1d1c1c" stroke-miterlimit="2.613" stroke-width="7.679986"/><path d="m2853.41 3729.03h162.37s15.14-1.51 15.14-15.67c0-13.69-7.56-17.23-13.64-17.23-11.13 0-167.4 0-167.4 0s-15.17 8.62-13.67 13.68c2.03 5.56 2.03 19.22 17.2 19.22" fill="#e6d35d" fill-rule="evenodd"/><path d="m2853.41 3729.03h162.37s15.14-1.51 15.14-15.67c0-13.69-7.56-17.23-13.64-17.23-11.13 0-167.4 0-167.4 0s-15.17 8.62-13.67 13.68c2.03 5.56 2.03 19.22 17.2 19.22z" fill="none" stroke="#1d1c1c" stroke-miterlimit="2.613" stroke-width="7.679986"/><path d="m2844.81 3543.88h175.52s16.67-1.54 16.67-15.7c0-13.67-8.09-17.22-14.68-17.22-12.1 0-181.54 0-181.54 0s-16.2 8.12-14.17 13.69c2.02 5.06 2.02 19.23 18.2 19.23" fill="#e6d35d" fill-rule="evenodd"/><path d="m2844.81 3543.88h175.52s16.67-1.54 16.67-15.7c0-13.67-8.09-17.22-14.68-17.22-12.1 0-181.54 0-181.54 0s-16.2 8.12-14.17 13.69c2.02 5.06 2.02 19.23 18.2 19.23z" fill="none" stroke="#1d1c1c" stroke-miterlimit="2.613" stroke-width="7.679986"/><path d="m2867.05 3907.63h134.55s12.63-1.02 12.63-9.62c0-8.1-6.57-10.11-11.11-10.11-9.61 0-139.6 0-139.6 0s-12.63 5.07-11.12 8.08c2.03 3.05 2.03 11.65 14.65 11.65" fill="#e6d35d" fill-rule="evenodd"/><path d="m2867.05 3907.63h134.55s12.63-1.02 12.63-9.62c0-8.1-6.57-10.11-11.11-10.11-9.61 0-139.6 0-139.6 0s-12.63 5.07-11.12 8.08c2.03 3.05 2.03 11.65 14.65 11.65z" fill="none" stroke="#1d1c1c" stroke-miterlimit="2.613" stroke-width="7.679986"/><path d="m2862.5 3722.45h146.18s13.64-1.02 13.64-9.62c0-8.08-7.08-10.1-12.1-10.1-10.14 0-150.73 0-150.73 0s-13.66 5.06-12.15 8.08c1.53 3.04 1.53 11.64 15.16 11.64" fill="#e6d35d" fill-rule="evenodd"/><path d="m2862.5 3722.45h146.18s13.64-1.02 13.64-9.62c0-8.08-7.08-10.1-12.1-10.1-10.14 0-150.73 0-150.73 0s-13.66 5.06-12.15 8.08c1.53 3.04 1.53 11.64 15.16 11.64z" fill="none" stroke="#1d1c1c" stroke-miterlimit="2.613" stroke-width="7.679986"/><path d="m2850.38 3536.8h164.38s15.17-1.01 15.17-9.13c0-8.59-7.61-10.11-13.17-10.11-11.61 0-169.94 0-169.94 0s-15.64 4.55-13.64 8.07c2.03 3.04 2.03 11.17 17.2 11.17" fill="#e6d35d" fill-rule="evenodd"/><path d="m2850.38 3536.8h164.38s15.17-1.01 15.17-9.13c0-8.59-7.61-10.11-13.17-10.11-11.61 0-169.94 0-169.94 0s-15.64 4.55-13.64 8.07c2.03 3.04 2.03 11.17 17.2 11.17z" fill="none" stroke="#1d1c1c" stroke-miterlimit="2.613" stroke-width="7.679986"/><path d="m2941.58 3458.71c230.06 0 416.38 247.34 416.38 551.9 0 305.08-184.35 540.53-413.92 542.5-226.13 2.49-419.33-237.42-419.33-542.5 0-304.56 186.31-551.9 416.87-551.9z" fill="none" stroke="#e6d35d" stroke-miterlimit="2.613" stroke-width="6.671988"/></g></svg>