<svg height="95.524" width="95.524" xmlns="http://www.w3.org/2000/svg"><g fill="#1f1f1f"><path d="M68.908 36.481l6.637.004-.008 3.512a1.924 1.924 0 0 0 .958 1.666 1.927 1.927 0 0 0 1.921.003l16.145-9.284a1.92 1.92 0 0 0 .007-3.327l-16.112-9.343a1.92 1.92 0 0 0-2.885 1.658l-.006 3.497-6.656-.004c-10.232 0-17.68 9.469-24.883 18.627-6.009 7.643-12.224 15.545-18.084 15.545H1.921A1.922 1.922 0 0 0 0 60.957v7.775c0 1.062.86 1.922 1.921 1.922H25.94c11.5 0 19.848-10.611 27.213-19.977 5.49-6.979 11.165-14.196 15.755-14.196z"/><path d="M94.561 63.142l-16.145-9.283a1.921 1.921 0 0 0-2.879 1.669l.008 3.512-6.635.004c-3.48 0-7.718-4.472-10.604-7.834l-7.832 8.701c4.442 5.005 10.554 10.752 18.437 10.752l6.654-.004.006 3.496a1.921 1.921 0 0 0 2.885 1.657l16.111-9.343a1.92 1.92 0 0 0-.006-3.327zM25.94 24.872H1.921A1.92 1.92 0 0 0 0 26.792v7.776a1.92 1.92 0 0 0 1.921 1.921H25.94c4.341 0 8.833 4.511 11.835 7.904l7.739-8.743c-4.27-4.626-10.945-10.778-19.574-10.778z"/></g></svg>