<svg version="1.1" id="Capa_1" xmlns="http://www.w3.org/2000/svg" xmlns:xlink="http://www.w3.org/1999/xlink" x="0px" y="0px"
	 width="95.524px" height="95.524px" viewBox="0 0 95.524 95.524" style="enable-background:new 0 0 95.524 95.524;"
	 xml:space="preserve">
<g>
	<g>
		<path fill='#1f1f1f' d="M68.908,36.481l6.637,0.004l-0.008,3.512c-0.001,0.686,0.364,1.321,0.958,1.666c0.593,0.343,1.326,0.344,1.921,0.003
			l16.145-9.284c0.596-0.342,0.963-0.976,0.964-1.662s-0.364-1.32-0.957-1.665l-16.112-9.343c-0.595-0.345-1.326-0.346-1.921-0.004
			c-0.595,0.342-0.962,0.976-0.964,1.662l-0.006,3.497l-6.656-0.004c-10.232,0-17.68,9.469-24.883,18.627
			c-6.009,7.643-12.224,15.545-18.084,15.545H1.921C0.86,59.036,0,59.895,0,60.957v7.775c0,1.062,0.86,1.922,1.921,1.922H25.94
			c11.5,0,19.848-10.611,27.213-19.977C58.643,43.698,64.318,36.481,68.908,36.481z"/>
		<path fill='#1f1f1f' d="M94.561,63.142l-16.145-9.283c-0.595-0.343-1.328-0.343-1.921,0.003c-0.594,0.344-0.959,0.979-0.958,1.666l0.008,3.512
			l-6.635,0.004c-3.48,0-7.718-4.472-10.604-7.834l-7.832,8.701c4.442,5.005,10.554,10.752,18.437,10.752l6.654-0.004l0.006,3.496
			c0.001,0.687,0.369,1.319,0.964,1.662c0.296,0.17,0.626,0.255,0.957,0.255c0.333,0,0.666-0.086,0.964-0.26l16.111-9.343
			c0.594-0.344,0.958-0.979,0.957-1.665C95.523,64.119,95.156,63.486,94.561,63.142z"/>
		<path fill='#1f1f1f' d="M25.94,24.872H1.921C0.86,24.872,0,25.732,0,26.792v7.776c0,1.061,0.86,1.921,1.921,1.921H25.94
			c4.341,0,8.833,4.511,11.835,7.904l7.739-8.743C41.244,31.024,34.569,24.872,25.94,24.872z"/>
	</g>
</g>
</svg>
