<svg enable-background="new 0 0 95.524 95.524" height="95.524" viewBox="0 0 95.524 95.524" width="95.524" xmlns="http://www.w3.org/2000/svg"><g fill="#1f1f1f"><path d="m68.908 36.481 6.637.004-.008 3.512c-.001.686.364 1.321.958 1.666.593.343 1.326.344 1.921.003l16.145-9.284c.596-.342.963-.976.964-1.662s-.364-1.32-.957-1.665l-16.112-9.343c-.595-.345-1.326-.346-1.921-.004s-.962.976-.964 1.662l-.006 3.497-6.656-.004c-10.232 0-17.68 9.469-24.883 18.627-6.009 7.643-12.224 15.545-18.084 15.545h-24.021c-1.061.001-1.921.86-1.921 1.922v7.775c0 1.062.86 1.922 1.921 1.922h24.019c11.5 0 19.848-10.611 27.213-19.977 5.49-6.979 11.165-14.196 15.755-14.196z"/><path d="m94.561 63.142-16.145-9.283c-.595-.343-1.328-.343-1.921.003-.594.344-.959.979-.958 1.666l.008 3.512-6.635.004c-3.48 0-7.718-4.472-10.604-7.834l-7.832 8.701c4.442 5.005 10.554 10.752 18.437 10.752l6.654-.004.006 3.496c.001.687.369 1.319.964 1.662.296.17.626.255.957.255.333 0 .666-.086.964-.26l16.111-9.343c.594-.344.958-.979.957-1.665-.001-.685-.368-1.318-.963-1.662z"/><path d="m25.94 24.872h-24.019c-1.061 0-1.921.86-1.921 1.92v7.776c0 1.061.86 1.921 1.921 1.921h24.019c4.341 0 8.833 4.511 11.835 7.904l7.739-8.743c-4.27-4.626-10.945-10.778-19.574-10.778z"/></g></svg>